# xmcd
#
# Track frame offsets: 
#        150
#        24394
#        38075
#        52358
#        65361
#        83931
#        99163
#        118130
#        144346
#        162257
#        179058
#        196264
#        214770
#
# Disc length: 3157 seconds
#
# Revision: 0
# Processed by: cddbd v1.5.2PL0 Copyright (c) Steve Scherf et al.
# Submitted via: ExactAudioCopy v1.0b3
#
DISCID=b70c530d
DTITLE=Ashanti - Braveheart
DYEAR=2014
DGENRE=R&B
TTITLE0=Intro - Braveheart
TTITLE1=Nowhere
TTITLE2=Runaway
TTITLE3=Count
TTITLE4=Early in the Morning (feat. French Montana)
TTITLE5=3 Words
TTITLE6=Love Games (feat. Jeremih)
TTITLE7=Scars
TTITLE8=Never Should Have
TTITLE9=She Can't
TTITLE10=Don't Tell Me No
TTITLE11=I Got It (feat. Rick Ross)
TTITLE12=First Real Love (feat. Beenie Man) - Outro
EXTD=
EXTT0=
EXTT1=
EXTT2=
EXTT3=
EXTT4=
EXTT5=
EXTT6=
EXTT7=
EXTT8=
EXTT9=
EXTT10=
EXTT11=
EXTT12=
PLAYORDER=
